<svg width="405" height="329" viewBox="0 0 405 329" fill="none" xmlns="http://www.w3.org/2000/svg">
<g clip-path="url(#clip0)">
<path d="M387.105 200.962C386.661 201.817 386.197 202.657 385.718 203.493C367.372 235.488 324.695 255.358 252.722 244.842C211.856 238.586 194.452 261.531 177.6 285.032C177.312 285.438 177.024 285.843 176.731 286.249C159.083 310.894 141.611 335.607 97.9235 327.392C51.6093 320.062 23.0261 282.417 18.6031 242.227C18.5493 241.738 18.5006 241.245 18.4565 240.756C15.9718 214.699 23.6509 187.718 43.2417 167.349C55.0754 155.049 71.8885 148.515 89.2434 148.72C94.4688 148.818 99.6919 148.43 104.846 147.562C105.983 147.362 107.087 147.142 108.161 146.893C130.271 141.835 140.459 126.797 146.708 108.447C146.854 108.012 147.001 107.577 147.142 107.137C161.49 63.3746 154.855 1.95053 232.858 10.9865C302.659 16.1373 353.884 54.8811 379.011 99.582C379.26 100.032 379.509 100.481 379.753 100.931C386.659 113.334 391.587 126.741 394.359 140.667C394.516 141.448 394.657 142.23 394.789 143.012C398.343 163.772 396.014 183.95 387.105 200.962Z" fill="#F2F2F2"/>
<path d="M379.753 100.931C374.745 106.889 369.102 112.282 362.925 117.014C338.862 135.486 308.385 145.505 278.318 147.606C262.866 148.693 247.338 147.638 232.174 144.469C216.748 141.233 202.034 135.535 187.784 128.879C173.924 122.404 160.475 115.103 146.708 108.447C146.854 108.012 147.001 107.577 147.142 107.137C162.154 114.37 176.858 122.341 192.045 129.231C206.354 135.726 221.166 141.023 236.656 143.858C252.111 146.666 267.884 147.285 283.512 145.695C313.496 142.675 343.998 131.601 367.05 111.79C371.378 108.07 375.38 103.986 379.011 99.582C379.26 100.032 379.509 100.481 379.753 100.931Z" fill="white"/>
<path d="M275.573 0.459612C275.538 0.459612 275.503 0.460729 275.468 0.462966C238.468 2.78346 209.485 33.6997 209.485 70.8472C209.485 107.995 238.468 138.911 275.468 141.231C275.689 141.246 275.911 141.215 276.12 141.14C276.328 141.065 276.519 140.948 276.68 140.795C276.841 140.646 276.969 140.464 277.056 140.263C277.143 140.061 277.187 139.844 277.187 139.624V2.07045C277.186 1.64283 277.015 1.23306 276.713 0.93106C276.41 0.629063 276.001 0.459505 275.573 0.459595L275.573 0.459612Z" fill="#CCCCCC"/>
<path d="M332.145 117.85C331.596 117.849 331.07 117.631 330.681 117.243L282.841 69.3527C282.648 69.1611 282.496 68.9333 282.392 68.6823C282.288 68.4313 282.235 68.1622 282.235 67.8906V2.07065C282.234 1.78822 282.292 1.50861 282.404 1.24942C282.516 0.990224 282.68 0.757053 282.887 0.564572C283.094 0.369706 283.339 0.219457 283.606 0.123133C283.873 0.02681 284.158 -0.0135341 284.441 0.00458859C321.683 2.34007 350.855 33.458 350.855 70.8473C350.856 87.831 344.774 104.252 333.712 117.13C333.526 117.345 333.298 117.52 333.041 117.644C332.785 117.768 332.506 117.837 332.221 117.848C332.196 117.849 332.17 117.85 332.145 117.85Z" fill="#CCCCCC"/>
<path d="M284.309 141.694C283.781 141.694 283.273 141.493 282.888 141.131C282.681 140.939 282.516 140.705 282.404 140.446C282.292 140.186 282.234 139.906 282.235 139.624V80.2367C282.236 79.8278 282.357 79.4281 282.584 79.0881C282.811 78.7481 283.133 78.4831 283.511 78.3266C283.888 78.1701 284.303 78.1292 284.704 78.2089C285.104 78.2886 285.472 78.4855 285.761 78.7746L327.508 120.565C327.707 120.764 327.863 121.001 327.967 121.262C328.07 121.523 328.12 121.802 328.113 122.083C328.106 122.364 328.042 122.64 327.924 122.895C327.807 123.151 327.639 123.379 327.431 123.567C315.545 134.279 300.398 140.664 284.438 141.69C284.395 141.693 284.352 141.694 284.309 141.694Z" fill="#1C8DA6"/>
<path d="M394.789 143.012C388.091 154.902 378.635 165.39 367.807 173.702C343.744 192.175 313.267 202.193 283.199 204.295C267.747 205.382 252.219 204.326 237.056 201.157C221.63 197.922 206.916 192.224 192.665 185.568C178.157 178.79 164.092 171.102 149.647 164.197C135.216 157.297 120.385 151.413 104.846 147.562C105.983 147.362 107.087 147.142 108.161 146.893C109.176 147.156 110.188 147.43 111.197 147.714C141.582 156.217 168.398 172.974 196.927 185.92C211.236 192.415 226.048 197.712 241.538 200.546C256.993 203.355 272.766 203.974 288.394 202.384C318.378 199.364 348.88 188.29 371.932 168.478C381.056 160.671 388.66 151.242 394.359 140.667C394.516 141.449 394.657 142.23 394.789 143.012Z" fill="white"/>
<path d="M93.1343 247.407C123.07 255.784 149.539 272.174 177.6 285.032C177.312 285.438 177.024 285.843 176.731 286.249C176.018 285.921 175.311 285.594 174.603 285.262C160.094 278.483 146.029 270.796 131.584 263.891C116.845 256.844 101.692 250.858 85.792 247.012C63.8135 241.712 41.1096 240.095 18.6031 242.227C18.5492 241.739 18.5006 241.245 18.4565 240.756C43.5459 238.385 68.857 240.64 93.1343 247.407Z" fill="white"/>
<path d="M213.453 294.56H0.558777C0.41058 294.56 0.268453 294.501 0.163662 294.396C0.0588706 294.291 0 294.149 0 294.001C0 293.852 0.0588706 293.71 0.163662 293.605C0.268453 293.5 0.41058 293.441 0.558777 293.441H213.453C213.601 293.441 213.743 293.5 213.848 293.605C213.953 293.71 214.012 293.852 214.012 294.001C214.012 294.149 213.953 294.291 213.848 294.396C213.743 294.501 213.601 294.56 213.453 294.56Z" fill="#CCCCCC"/>
<path d="M86.6771 219.1C94.2567 219.1 100.401 212.949 100.401 205.361C100.401 197.773 94.2567 191.623 86.6771 191.623C79.0974 191.623 72.9529 197.773 72.9529 205.361C72.9529 212.949 79.0974 219.1 86.6771 219.1Z" fill="#A0616A"/>
<path d="M138.029 302.302L138.349 309.152L112.107 313.65L111.634 303.54L138.029 302.302Z" fill="#A0616A"/>
<path d="M144.58 300.244L145.308 315.817L145.029 315.83C142.874 315.972 140.726 315.452 138.873 314.339C137.198 313.271 136.233 311.79 136.157 310.171V310.171L135.713 300.66L144.58 300.244Z" fill="#2F2E41"/>
<path d="M137.294 313.574L144.145 313.574L147.404 287.122L137.293 287.123L137.294 313.574Z" fill="#A0616A"/>
<path d="M135.547 311.335L149.038 311.334H149.039C150.168 311.334 151.286 311.557 152.329 311.99C153.372 312.422 154.32 313.056 155.118 313.855C155.916 314.654 156.55 315.603 156.982 316.647C157.414 317.692 157.636 318.811 157.636 319.941V320.221L135.547 320.221L135.547 311.335Z" fill="#2F2E41"/>
<path d="M72.6201 307.166C73.3706 306.711 74.0124 306.097 74.5 305.367C74.9877 304.636 75.3095 303.808 75.4428 302.939C75.576 302.071 75.5174 301.184 75.2712 300.341C75.0249 299.498 74.597 298.719 74.0175 298.059L79.4853 243.603L66.4629 244.514L65.183 297.756C64.1405 298.804 63.5181 300.199 63.4339 301.675C63.3498 303.152 63.8096 304.608 64.7263 305.768C65.643 306.928 66.9529 307.711 68.4078 307.969C69.8626 308.226 71.3614 307.941 72.6201 307.166V307.166Z" fill="#A0616A"/>
<path d="M79.4216 253.042L65.9276 251.396C65.5436 251.349 65.1743 251.22 64.8447 251.018C64.5151 250.815 64.233 250.544 64.0176 250.222C63.8022 249.901 63.6586 249.536 63.5965 249.154C63.5345 248.772 63.5554 248.381 63.6579 248.008L67.2512 234.926C67.5017 232.961 68.5204 231.176 70.084 229.961C71.6475 228.747 73.6283 228.203 75.592 228.448C77.5558 228.694 79.3421 229.709 80.5595 231.27C81.7768 232.832 82.3257 234.814 82.0859 236.78L82.4378 250.299C82.4477 250.686 82.3742 251.07 82.2223 251.426C82.0703 251.782 81.8435 252.101 81.5573 252.362C81.2711 252.622 80.9321 252.818 80.5636 252.935C80.195 253.053 79.8055 253.089 79.4216 253.042Z" fill="#1C8DA6"/>
<path d="M77.534 314.88C75.8988 314.768 74.3221 314.226 72.9633 313.309C71.6045 312.391 70.5116 311.131 69.7953 309.655C69.079 308.179 68.7645 306.54 68.8837 304.904C69.0028 303.268 69.5514 301.692 70.474 300.336L79.2882 291.176L111.418 262.369L128.595 248.1C129.597 247.267 130.794 246.703 132.074 246.46C133.354 246.217 134.674 246.304 135.911 246.711C137.148 247.119 138.262 247.834 139.147 248.79C140.033 249.746 140.661 250.912 140.973 252.178L149.947 288.519C150.098 289.123 150.019 289.762 149.725 290.312C149.431 290.861 148.944 291.281 148.358 291.491L138.575 295.017C138.247 295.135 137.899 295.184 137.551 295.16C137.204 295.136 136.865 295.04 136.557 294.879C136.248 294.717 135.977 294.493 135.759 294.221C135.542 293.948 135.383 293.634 135.293 293.297L131.572 279.327L110.865 299.143L117.325 301.524C117.918 301.745 118.406 302.18 118.693 302.744C118.981 303.308 119.046 303.959 118.877 304.569L116.789 311.974C116.645 312.49 116.34 312.947 115.917 313.276C115.495 313.606 114.978 313.792 114.442 313.806L77.534 314.88Z" fill="#2F2E41"/>
<path d="M76.6563 294.225L75.8064 263.151L70.4454 249.521C69.3508 246.741 68.8765 243.754 69.0557 240.771C69.235 237.787 70.0634 234.879 71.483 232.25C72.9026 229.621 74.8791 227.334 77.2741 225.549C79.6692 223.765 82.4249 222.526 85.3484 221.919C85.7897 221.827 86.2297 221.738 86.6685 221.651C89.4729 221.094 92.3627 221.13 95.1522 221.758C97.9416 222.386 100.569 223.592 102.865 225.297C105.161 227.003 107.075 229.171 108.483 231.662C109.892 234.152 110.764 236.91 111.044 239.759L113.563 263.152L113.553 263.197C109.536 281.084 97.9116 290.928 76.9698 294.177L76.6563 294.225Z" fill="#1C8DA6"/>
<path d="M89.3354 272.64C89.641 272.593 89.9498 272.57 90.259 272.571L105.77 249.584L102.833 243.52L111.395 237.886L117.637 248.115C118.142 248.941 118.365 249.909 118.273 250.873C118.181 251.837 117.779 252.745 117.128 253.461L95.8984 276.794C96.2319 277.938 96.2093 279.157 95.8336 280.289C95.458 281.42 94.7471 282.411 93.7955 283.128C92.844 283.845 91.6969 284.255 90.5067 284.304C89.3166 284.353 88.1399 284.037 87.1331 283.4C86.1263 282.763 85.3371 281.834 84.8706 280.737C84.404 279.64 84.2821 278.427 84.5212 277.259C84.7603 276.09 85.349 275.023 86.2089 274.198C87.0689 273.373 88.1594 272.83 89.3354 272.64Z" fill="#A0616A"/>
<path d="M104.413 249.156C104.065 249.059 103.742 248.888 103.466 248.654C103.19 248.421 102.968 248.13 102.814 247.803L97.4497 236.368C96.4268 234.826 96.0562 232.942 96.4191 231.127C96.782 229.313 97.8487 227.717 99.3854 226.688C100.922 225.66 102.804 225.283 104.617 225.641C106.431 225.999 108.029 227.062 109.06 228.597L117.536 238.013C117.778 238.282 117.959 238.599 118.067 238.944C118.176 239.29 118.208 239.654 118.163 240.013C118.118 240.372 117.996 240.717 117.805 241.024C117.615 241.332 117.36 241.594 117.059 241.794L106.481 248.829C106.18 249.029 105.84 249.162 105.483 249.219C105.126 249.275 104.761 249.254 104.413 249.156Z" fill="#1C8DA6"/>
<path d="M268.707 216.018H223.406C222.754 216.018 222.127 215.758 221.666 215.296C221.204 214.834 220.944 214.207 220.944 213.553C220.944 212.9 221.204 212.273 221.666 211.811C222.127 211.348 222.754 211.089 223.406 211.089H268.707C269.359 211.089 269.986 211.348 270.447 211.811C270.909 212.273 271.168 212.9 271.168 213.553C271.168 214.207 270.909 214.834 270.447 215.296C269.986 215.758 269.359 216.018 268.707 216.018Z" fill="#CCCCCC"/>
<path d="M209.866 218.482C208.843 218.482 207.844 218.179 206.993 217.61C206.143 217.042 205.48 216.233 205.089 215.288C204.698 214.342 204.595 213.301 204.795 212.297C204.994 211.293 205.487 210.371 206.21 209.647C206.933 208.924 207.854 208.431 208.857 208.231C209.86 208.031 210.9 208.134 211.844 208.525C212.789 208.917 213.596 209.581 214.164 210.432C214.733 211.283 215.036 212.283 215.036 213.307C215.034 214.679 214.489 215.995 213.52 216.965C212.551 217.935 211.236 218.481 209.866 218.482Z" fill="#3F3D56"/>
<path d="M268.707 230.805H223.406C222.754 230.805 222.127 230.545 221.666 230.083C221.204 229.621 220.944 228.994 220.944 228.341C220.944 227.687 221.204 227.06 221.666 226.598C222.127 226.136 222.754 225.876 223.406 225.876H268.707C269.359 225.876 269.986 226.136 270.447 226.598C270.909 227.06 271.168 227.687 271.168 228.341C271.168 228.994 270.909 229.621 270.447 230.083C269.986 230.545 269.359 230.805 268.707 230.805Z" fill="#CCCCCC"/>
<path d="M209.866 233.27C208.843 233.27 207.844 232.966 206.993 232.397C206.143 231.829 205.48 231.02 205.089 230.075C204.698 229.129 204.595 228.088 204.795 227.084C204.994 226.08 205.487 225.158 206.21 224.434C206.933 223.711 207.854 223.218 208.857 223.018C209.86 222.818 210.899 222.921 211.844 223.312C212.789 223.704 213.596 224.368 214.164 225.219C214.733 226.07 215.036 227.07 215.036 228.094C215.034 229.466 214.489 230.782 213.52 231.752C212.551 232.722 211.236 233.268 209.866 233.27Z" fill="#3F3D56"/>
<path d="M268.707 245.592H223.406C222.754 245.592 222.127 245.333 221.666 244.87C221.204 244.408 220.944 243.781 220.944 243.128C220.944 242.474 221.204 241.847 221.666 241.385C222.127 240.923 222.754 240.663 223.406 240.663H268.707C269.359 240.663 269.986 240.923 270.447 241.385C270.909 241.847 271.168 242.474 271.168 243.128C271.168 243.781 270.909 244.408 270.447 244.87C269.986 245.333 269.359 245.592 268.707 245.592Z" fill="#CCCCCC"/>
<path d="M209.866 248.057C208.843 248.057 207.844 247.753 206.993 247.184C206.143 246.616 205.48 245.807 205.089 244.862C204.698 243.916 204.595 242.875 204.795 241.872C204.994 240.868 205.487 239.945 206.21 239.222C206.933 238.498 207.854 238.005 208.857 237.805C209.86 237.605 210.9 237.708 211.844 238.1C212.789 238.491 213.596 239.155 214.164 240.006C214.733 240.857 215.036 241.858 215.036 242.881C215.034 244.253 214.489 245.569 213.52 246.539C212.551 247.509 211.236 248.055 209.866 248.057Z" fill="#3F3D56"/>
<path d="M281.722 228.274H300.433C300.563 228.274 300.688 228.222 300.781 228.13C300.873 228.037 300.925 227.912 300.925 227.781V111.987C300.925 111.857 300.873 111.731 300.781 111.639C300.688 111.546 300.563 111.494 300.433 111.494C300.302 111.494 300.177 111.546 300.084 111.639C299.992 111.731 299.94 111.857 299.94 111.987V227.288H281.722C281.657 227.288 281.593 227.301 281.533 227.325C281.473 227.35 281.418 227.386 281.373 227.432C281.327 227.478 281.29 227.532 281.265 227.592C281.24 227.652 281.228 227.716 281.228 227.781C281.228 227.846 281.24 227.91 281.265 227.97C281.29 228.03 281.327 228.084 281.373 228.13C281.418 228.176 281.473 228.212 281.533 228.237C281.593 228.262 281.657 228.274 281.722 228.274Z" fill="#3F3D56"/>
<path d="M361.898 36.3058C360.647 36.4067 359.394 36.1339 358.298 35.522C357.202 34.9101 356.311 33.9864 355.739 32.8679C355.167 31.7494 354.94 30.4863 355.085 29.2382C355.23 27.9901 355.742 26.8132 356.555 25.8562C357.369 24.8993 358.447 24.2053 359.655 23.862C360.862 23.5187 362.144 23.5415 363.339 23.9276C364.533 24.3136 365.587 25.0456 366.365 26.031C367.144 27.0163 367.614 28.2107 367.715 29.4631C367.85 31.1426 367.313 32.8071 366.222 34.0903C365.131 35.3736 363.576 36.1705 361.898 36.3058ZM361.82 35.3316C362.879 35.2462 363.888 34.8485 364.721 34.1887C365.554 33.529 366.173 32.6368 366.499 31.625C366.825 30.6132 366.845 29.5273 366.555 28.5046C366.264 27.4818 365.678 26.5682 364.869 25.8792C364.06 25.1902 363.065 24.7568 362.01 24.6337C360.955 24.5107 359.887 24.7036 358.942 25.188C357.997 25.6725 357.216 26.4267 356.699 27.3553C356.181 28.2839 355.951 29.3451 356.036 30.4049C356.093 31.1086 356.287 31.7942 356.609 32.4226C356.93 33.051 357.372 33.6099 357.909 34.0674C358.446 34.5249 359.068 34.872 359.739 35.0889C360.41 35.3058 361.117 35.3883 361.82 35.3316V35.3316Z" fill="#CCCCCC"/>
<path d="M383.752 20.0045C385.908 20.0045 387.657 18.2542 387.657 16.095C387.657 13.9358 385.908 12.1854 383.752 12.1854C381.595 12.1854 379.846 13.9358 379.846 16.095C379.846 18.2542 381.595 20.0045 383.752 20.0045Z" fill="#CCCCCC"/>
<path d="M402.948 5.86573C404.081 5.86573 405 4.94628 405 3.81208C405 2.67787 404.081 1.75842 402.948 1.75842C401.815 1.75842 400.897 2.67787 400.897 3.81208C400.897 4.94628 401.815 5.86573 402.948 5.86573Z" fill="#CCCCCC"/>
<path d="M332.078 161.353C331.386 162.401 330.399 163.221 329.242 163.708C328.085 164.194 326.81 164.327 325.577 164.088C324.345 163.849 323.211 163.25 322.319 162.366C321.427 161.482 320.817 160.353 320.565 159.122C320.314 157.891 320.433 156.613 320.908 155.45C321.382 154.287 322.19 153.29 323.23 152.587C324.27 151.883 325.495 151.504 326.751 151.498C328.006 151.491 329.235 151.858 330.282 152.55C331.685 153.481 332.662 154.93 332.998 156.58C333.335 158.23 333.004 159.947 332.078 161.353ZM322.303 154.887C321.717 155.774 321.408 156.815 321.413 157.879C321.419 158.942 321.739 159.979 322.334 160.86C322.928 161.741 323.771 162.426 324.754 162.828C325.737 163.23 326.817 163.331 327.858 163.118C328.899 162.905 329.853 162.388 330.6 161.632C331.347 160.877 331.854 159.916 332.055 158.872C332.257 157.829 332.145 156.748 331.734 155.768C331.322 154.788 330.63 153.952 329.744 153.366C328.555 152.581 327.104 152.301 325.709 152.586C324.314 152.872 323.089 153.699 322.303 154.887Z" fill="#CCCCCC"/>
<path d="M339.681 184.718C341.838 184.718 343.587 182.968 343.587 180.808C343.587 178.649 341.838 176.899 339.681 176.899C337.524 176.899 335.776 178.649 335.776 180.808C335.776 182.968 337.524 184.718 339.681 184.718Z" fill="#CCCCCC"/>
<path d="M350.575 202.893C351.708 202.893 352.627 201.973 352.627 200.839C352.627 199.705 351.708 198.785 350.575 198.785C349.442 198.785 348.524 199.705 348.524 200.839C348.524 201.973 349.442 202.893 350.575 202.893Z" fill="#CCCCCC"/>
<path d="M174.494 54.653C173.935 53.5278 173.722 52.262 173.882 51.0158C174.042 49.7695 174.568 48.5988 175.393 47.6515C176.217 46.7043 177.304 46.0232 178.516 45.6943C179.727 45.3654 181.009 45.4035 182.199 45.8037C183.388 46.204 184.433 46.9485 185.2 47.943C185.967 48.9375 186.423 50.1374 186.509 51.391C186.594 52.6446 186.307 53.8955 185.683 54.9855C185.058 56.0756 184.125 56.9559 183.001 57.5151C181.494 58.263 179.751 58.3817 178.156 57.8451C176.561 57.3086 175.244 56.1606 174.494 54.653ZM184.986 49.4335C184.513 48.4814 183.769 47.691 182.848 47.1622C181.926 46.6334 180.869 46.39 179.809 46.4628C178.75 46.5355 177.736 46.9212 176.895 47.571C176.054 48.2208 175.425 49.1055 175.087 50.1134C174.748 51.1212 174.716 52.2068 174.994 53.2329C175.272 54.2591 175.848 55.1796 176.649 55.8782C177.449 56.5768 178.439 57.022 179.492 57.1576C180.546 57.2931 181.616 57.1129 182.567 56.6398C183.841 56.0041 184.811 54.8884 185.265 53.5374C185.718 52.1865 185.618 50.7106 184.986 49.4335Z" fill="#CCCCCC"/>
<path d="M153.868 55.3828C156.025 55.3828 157.773 53.6325 157.773 51.4733C157.773 49.3141 156.025 47.5637 153.868 47.5637C151.711 47.5637 149.962 49.3141 149.962 51.4733C149.962 53.6325 151.711 55.3828 153.868 55.3828Z" fill="#CCCCCC"/>
<path d="M131.093 52.908C132.226 52.908 133.144 51.9885 133.144 50.8543C133.144 49.7201 132.226 48.8007 131.093 48.8007C129.96 48.8007 129.041 49.7201 129.041 50.8543C129.041 51.9885 129.96 52.908 131.093 52.908Z" fill="#CCCCCC"/>
<path d="M101.18 206.563L100.608 205.104C99.0301 201.077 95.2562 197.982 91.2175 197.402C89.2025 197.138 87.154 197.452 85.3104 198.308C83.4667 199.163 81.9036 200.525 80.8029 202.235C79.8687 203.858 79.1312 205.586 78.6059 207.383C78.4259 207.918 78.2444 208.305 77.8959 208.422C77.5034 208.564 77.1129 208.322 76.4658 207.92C76.3214 207.831 76.1547 207.784 75.9849 207.786C75.8152 207.788 75.6495 207.838 75.5071 207.93C75.3647 208.023 75.2516 208.154 75.1809 208.309C75.1102 208.463 75.0848 208.635 75.1078 208.803L75.7864 213.652L75.2185 213.147C71.5236 209.854 70.7645 203.659 73.4336 199.728L67.359 200.978L67.6327 200.455C70.1556 195.581 74.504 191.904 79.727 190.23L73.9084 188.947L74.4965 188.585C79.7072 185.371 86.5814 185.462 92.0083 188.81C94.734 190.558 96.9916 192.946 98.5845 195.767C100.177 198.588 101.057 201.756 101.148 204.995L101.18 206.563Z" fill="#2F2E41"/>
</g>
<defs>
<clipPath id="clip0">
<rect width="405" height="329" fill="white"/>
</clipPath>
</defs>
</svg>
