<svg width="435" height="306" viewBox="0 0 435 306" fill="none" xmlns="http://www.w3.org/2000/svg">
<g clip-path="url(#clip0)">
<path d="M222.163 305.352C235.247 305.352 245.853 294.764 245.853 281.705C245.853 268.645 235.247 258.058 222.163 258.058C209.08 258.058 198.474 268.645 198.474 281.705C198.474 294.764 209.08 305.352 222.163 305.352Z" fill="#1C8DA6"/>
<path d="M363.686 304.023C376.939 300.05 391.029 295.907 401.54 286.462C410.932 278.022 417.273 265.134 413.382 252.477C409.499 239.846 397.868 231.423 385.86 227.234C379.049 224.858 371.924 223.54 364.801 222.504C357.058 221.379 349.281 220.456 341.508 219.569C310.033 215.975 278.439 213.78 246.727 212.983C231.079 212.59 215.434 212.599 199.784 212.826C185.808 213.029 171.088 213.024 158.122 207.094C148.039 202.483 138.888 194.094 136.079 183.07C132.836 170.345 138.817 157.386 147.398 148.17C151.921 143.312 157.207 139.223 162.661 135.464C168.577 131.385 174.699 127.595 180.954 124.058C193.273 117.093 206.152 111.167 219.458 106.339C226.021 103.956 232.683 101.901 239.402 100.005C245.076 98.4036 250.767 96.8002 256.25 94.6187C266.851 90.4015 276.933 83.258 279.628 71.547C282.183 60.4477 277.876 48.3985 270.325 40.153C261.589 30.6136 248.417 26.4318 235.79 25.7552C221.613 24.9956 207.763 28.5373 194.437 33.0322C180.225 37.8263 166.32 43.3387 151.807 47.2219C137.416 51.0688 122.747 53.7907 107.932 55.3628C100.68 56.1337 93.2087 57.0041 85.9133 56.414C79.7991 55.9194 73.7162 54.1245 69.2101 49.7931C65.3464 46.0791 63.0447 40.9749 63.836 35.5884C63.9797 34.61 65.4686 35.0259 65.3258 35.9983C64.3626 42.5552 68.8277 48.5972 74.33 51.6922C80.6892 55.2692 88.4274 55.2741 95.5073 54.865C110.859 53.9395 126.106 51.7393 141.091 48.2873C155.816 44.9302 170.015 40.131 184.198 35.0045C197.668 30.1355 211.44 25.3834 225.83 24.3288C238.317 23.4138 251.452 25.2296 262.33 31.7432C271.89 37.4677 278.92 47.0145 281.16 57.9695C283.349 68.6746 280.317 79.4495 272.199 86.9199C263.794 94.6546 252.269 97.9615 241.528 101.007C227.906 104.87 214.575 109.385 201.672 115.248C188.593 121.174 176.049 128.213 164.18 136.288C152.724 144.102 141.417 153.936 137.794 167.877C136.106 174.371 136.418 181.259 139.242 187.393C141.753 192.847 145.889 197.435 150.707 200.974C162.201 209.417 176.689 211.151 190.574 211.323C206.169 211.517 221.764 210.991 237.364 211.247C269.155 211.768 300.882 213.699 332.544 217.042C340.477 217.88 348.401 218.807 356.314 219.821C363.432 220.734 370.574 221.641 377.572 223.263C390.016 226.146 402.124 231.689 409.858 242.22C413.291 246.785 415.417 252.195 416.011 257.871C416.552 263.795 415.099 269.73 412.416 275C406.477 286.664 395.352 294.084 383.539 298.958C377.211 301.569 370.648 303.546 364.097 305.51C363.143 305.796 362.735 304.308 363.686 304.023L363.686 304.023Z" fill="#F2F2F2"/>
<path d="M64.8336 48.0646C71.6597 48.0646 77.1934 42.5409 77.1934 35.7271C77.1934 28.9134 71.6597 23.3897 64.8336 23.3897C58.0075 23.3897 52.4738 28.9134 52.4738 35.7271C52.4738 42.5409 58.0075 48.0646 64.8336 48.0646Z" fill="#F2F2F2"/>
<path d="M150.58 71.4543C157.406 71.4543 162.939 65.9306 162.939 59.1168C162.939 52.3031 157.406 46.7794 150.58 46.7794C143.754 46.7794 138.22 52.3031 138.22 59.1168C138.22 65.9306 143.754 71.4543 150.58 71.4543Z" fill="#F2F2F2"/>
<path d="M223.193 24.6749C230.019 24.6749 235.553 19.1512 235.553 12.3374C235.553 5.52366 230.019 0 223.193 0C216.367 0 210.834 5.52366 210.834 12.3374C210.834 19.1512 216.367 24.6749 223.193 24.6749Z" fill="#F2F2F2"/>
<path d="M268.512 77.1089C275.339 77.1089 280.872 71.5853 280.872 64.7715C280.872 57.9577 275.339 52.4341 268.512 52.4341C261.686 52.4341 256.153 57.9577 256.153 64.7715C256.153 71.5853 261.686 77.1089 268.512 77.1089Z" fill="#F2F2F2"/>
<path d="M207.229 137.768C214.055 137.768 219.588 132.244 219.588 125.431C219.588 118.617 214.055 113.093 207.229 113.093C200.402 113.093 194.869 118.617 194.869 125.431C194.869 132.244 200.402 137.768 207.229 137.768Z" fill="#F2F2F2"/>
<path d="M129.465 167.069C136.291 167.069 141.825 161.546 141.825 154.732C141.825 147.918 136.291 142.395 129.465 142.395C122.639 142.395 117.105 147.918 117.105 154.732C117.105 161.546 122.639 167.069 129.465 167.069Z" fill="#F2F2F2"/>
<path d="M211.863 212.821C218.69 212.821 224.223 207.297 224.223 200.483C224.223 193.67 218.69 188.146 211.863 188.146C205.037 188.146 199.504 193.67 199.504 200.483C199.504 207.297 205.037 212.821 211.863 212.821Z" fill="#F2F2F2"/>
<path d="M300.442 238.524C307.268 238.524 312.802 233 312.802 226.186C312.802 219.373 307.268 213.849 300.442 213.849C293.616 213.849 288.082 219.373 288.082 226.186C288.082 233 293.616 238.524 300.442 238.524Z" fill="#F2F2F2"/>
<path d="M403.955 232.869C410.781 232.869 416.315 227.345 416.315 220.532C416.315 213.718 410.781 208.194 403.955 208.194C397.129 208.194 391.595 213.718 391.595 220.532C391.595 227.345 397.129 232.869 403.955 232.869Z" fill="#F2F2F2"/>
<path d="M219.626 34.9578C182.602 35.2189 152.287 65.2513 151.762 102.205C151.757 102.546 151.754 104.945 151.755 108.083C151.755 112.684 153.586 117.096 156.845 120.349C160.104 123.602 164.524 125.43 169.133 125.431H169.133C171.417 125.43 173.679 124.98 175.79 124.107C177.9 123.233 179.818 121.953 181.432 120.34C183.047 118.726 184.327 116.811 185.2 114.703C186.073 112.596 186.521 110.337 186.519 108.057C186.517 105.922 186.516 104.445 186.516 104.354C186.515 98.643 188.003 93.0298 190.835 88.0669C193.666 83.104 197.743 78.9623 202.664 76.0491C207.585 73.1359 213.181 71.5517 218.902 71.4523C224.623 71.3528 230.271 72.7416 235.291 75.4819C240.311 78.2222 244.529 82.2198 247.532 87.0813C250.535 91.9428 252.218 97.5008 252.416 103.209C252.614 108.916 251.32 114.577 248.661 119.634C246.003 124.692 242.071 128.971 237.253 132.051L237.259 132.059C237.259 132.059 212.525 147.953 204.985 169.757L204.991 169.759C203.665 174.226 202.993 178.861 202.996 183.519C202.996 185.434 203.109 202.191 203.327 215.791C203.403 220.483 205.325 224.958 208.676 228.249C212.028 231.54 216.542 233.384 221.244 233.383H221.244C223.606 233.383 225.945 232.917 228.126 232.011C230.308 231.105 232.288 229.777 233.953 228.105C235.619 226.432 236.936 224.447 237.83 222.264C238.724 220.081 239.177 217.744 239.162 215.386C239.086 202.93 239.045 188.427 239.045 187.375C239.045 173.986 251.985 160.646 262.613 151.947C274.853 141.93 283.66 128.278 287.197 112.879C287.98 109.709 288.412 106.462 288.485 103.198C288.485 94.1944 286.7 85.2803 283.233 76.9688C279.767 68.6573 274.687 61.1126 268.286 54.7695C261.885 48.4264 254.29 43.4103 245.939 40.0101C237.588 36.6099 228.645 34.8928 219.626 34.9578Z" fill="#1C8DA6"/>
<path d="M434.387 306H0.613203C0.450883 306 0.295374 305.935 0.180762 305.82C0.0661501 305.705 0.00178528 305.55 0.00178528 305.388C0.00178528 305.226 0.0661501 305.071 0.180762 304.956C0.295374 304.841 0.450883 304.776 0.613203 304.776H434.387C434.549 304.776 434.705 304.84 434.82 304.955C434.935 305.07 435 305.226 435 305.388C435 305.55 434.935 305.706 434.82 305.821C434.705 305.936 434.549 306 434.387 306Z" fill="#3F3D56"/>
<path d="M323.645 140.336C332.178 140.336 339.095 133.432 339.095 124.914C339.095 116.397 332.178 109.493 323.645 109.493C315.113 109.493 308.196 116.397 308.196 124.914C308.196 133.432 315.113 140.336 323.645 140.336Z" fill="#2F2E41"/>
<path d="M295.096 299.249H288.783L285.779 274.94H295.097L295.096 299.249Z" fill="#A0616A"/>
<path d="M284.273 297.448H296.449V305.101H276.606C276.606 304.096 276.804 303.101 277.19 302.172C277.575 301.244 278.14 300.4 278.852 299.69C279.563 298.979 280.409 298.415 281.339 298.031C282.269 297.646 283.266 297.448 284.273 297.448Z" fill="#2F2E41"/>
<path d="M344.02 299.249H337.707L334.703 274.94H344.022L344.02 299.249Z" fill="#A0616A"/>
<path d="M333.197 297.448H345.373V305.101H325.53C325.53 304.096 325.728 303.101 326.114 302.172C326.499 301.244 327.064 300.4 327.776 299.69C328.488 298.979 329.333 298.415 330.263 298.031C331.193 297.646 332.19 297.448 333.197 297.448Z" fill="#2F2E41"/>
<path d="M321.298 140.426C328.283 140.426 333.946 134.774 333.946 127.8C333.946 120.827 328.283 115.175 321.298 115.175C314.312 115.175 308.649 120.827 308.649 127.8C308.649 134.774 314.312 140.426 321.298 140.426Z" fill="#A0616A"/>
<path d="M328.837 181.158L334.496 168.178C335.871 165.133 336.265 161.737 335.624 158.459C334.983 155.181 333.338 152.182 330.917 149.877C330.42 149.386 329.892 148.928 329.336 148.505C326.543 146.324 323.102 145.135 319.556 145.127C317.173 145.136 314.819 145.659 312.656 146.659C312.47 146.741 312.29 146.829 312.104 146.916C311.749 147.086 311.399 147.271 311.059 147.461C308.842 148.732 306.955 150.505 305.551 152.637C304.146 154.769 303.264 157.201 302.974 159.737L300.476 180.628C299.848 182.268 277.435 241.488 285.274 286.699C285.357 287.182 285.593 287.626 285.947 287.965C286.301 288.304 286.754 288.522 287.241 288.586L295.187 289.665C295.767 289.745 296.356 289.601 296.835 289.265C297.314 288.928 297.647 288.423 297.767 287.851L311.1 224.411C311.183 224.016 311.396 223.661 311.705 223.402C312.014 223.143 312.402 222.995 312.805 222.982C313.208 222.968 313.604 223.09 313.93 223.327C314.256 223.565 314.493 223.905 314.602 224.292L333.441 291.007C333.575 291.492 333.865 291.919 334.265 292.224C334.666 292.528 335.156 292.693 335.66 292.693C335.81 292.692 335.96 292.678 336.108 292.652L345.816 290.786C346.38 290.681 346.885 290.369 347.23 289.911C347.576 289.454 347.739 288.884 347.685 288.313C346.259 272.434 338.678 192.894 328.837 181.158Z" fill="#2F2E41"/>
<path d="M272.141 138.308C272.054 139.058 272.132 139.819 272.37 140.536C272.609 141.253 273.002 141.91 273.522 142.459C274.043 143.008 274.677 143.436 275.381 143.714C276.085 143.992 276.842 144.112 277.597 144.067L284.668 161.027L290.016 153.113L282.482 138.221C282.321 136.959 281.702 135.799 280.742 134.962C279.782 134.125 278.548 133.669 277.273 133.68C275.998 133.69 274.772 134.167 273.826 135.02C272.88 135.873 272.281 137.043 272.141 138.308L272.141 138.308Z" fill="#A0616A"/>
<path d="M320.596 198.235C321.348 198.145 322.071 197.892 322.714 197.493C323.357 197.095 323.905 196.56 324.318 195.927C324.732 195.294 325.002 194.579 325.109 193.83C325.215 193.082 325.156 192.32 324.936 191.597L339.811 180.782L330.856 177.434L318.102 188.217C316.91 188.668 315.925 189.539 315.333 190.666C314.741 191.793 314.584 193.097 314.892 194.332C315.199 195.567 315.95 196.646 317.001 197.365C318.052 198.085 319.331 198.394 320.596 198.235Z" fill="#A0616A"/>
<path d="M296.346 172.334C295.776 172.333 295.207 172.277 294.647 172.167C293.294 171.91 292.025 171.324 290.952 170.462C289.879 169.6 289.035 168.488 288.495 167.223L278.589 155.167C278.38 154.912 278.227 154.616 278.142 154.297C278.057 153.979 278.041 153.646 278.095 153.32C278.149 152.995 278.272 152.685 278.456 152.412C278.64 152.138 278.881 151.906 279.161 151.733L286.209 147.378C286.469 147.218 286.758 147.11 287.06 147.061C287.363 147.013 287.671 147.024 287.969 147.096C288.267 147.167 288.547 147.296 288.794 147.476C289.042 147.656 289.251 147.883 289.409 148.144L296.391 159.625L309.761 149.762C310.825 149.205 312.055 149.049 313.225 149.322C314.396 149.595 315.429 150.28 316.135 151.25C316.842 152.221 317.175 153.413 317.074 154.608C316.973 155.804 316.445 156.923 315.585 157.762L302.241 169.913C300.673 171.464 298.554 172.334 296.346 172.334Z" fill="#2F2E41"/>
<path d="M332.473 190.466C332.455 190.466 332.436 190.466 332.418 190.466C332.093 190.458 331.774 190.382 331.48 190.243C331.186 190.104 330.925 189.905 330.713 189.658L324.448 182.362C324.234 182.114 324.076 181.823 323.984 181.509C323.891 181.195 323.867 180.865 323.912 180.541C323.956 180.216 324.07 179.905 324.244 179.628C324.418 179.351 324.649 179.113 324.922 178.932L336.654 171.125L326.025 158.369C325.407 157.341 325.18 156.124 325.386 154.942C325.593 153.76 326.218 152.691 327.148 151.932C328.078 151.172 329.251 150.771 330.453 150.804C331.654 150.836 332.804 151.298 333.692 152.107L346.61 164.708C347.627 165.635 348.403 166.794 348.872 168.087C349.341 169.379 349.488 170.766 349.302 172.128C349.116 173.49 348.602 174.786 347.803 175.906C347.005 177.026 345.946 177.935 344.717 178.557L334.159 189.74C333.943 189.969 333.681 190.152 333.391 190.276C333.101 190.401 332.789 190.466 332.473 190.466Z" fill="#2F2E41"/>
<path d="M318.081 163.581C317.981 163.581 317.88 163.575 317.781 163.562C317.344 163.509 316.932 163.332 316.594 163.053C316.255 162.773 316.004 162.402 315.87 161.985L311.162 147.576C311.044 147.211 311.062 146.817 311.213 146.465C311.364 146.113 311.637 145.827 311.982 145.661L312.135 145.589C312.274 145.523 312.411 145.458 312.551 145.396C314.747 144.38 317.136 143.85 319.556 143.842C322.698 143.848 325.77 144.769 328.394 146.493C328.746 146.727 328.992 147.089 329.079 147.502C329.166 147.915 329.087 148.345 328.859 148.701L320.026 162.512C319.819 162.84 319.532 163.11 319.192 163.297C318.852 163.484 318.47 163.582 318.081 163.581Z" fill="#E6E6E6"/>
<path d="M335.826 118.03C338.618 118.03 340.882 115.77 340.882 112.983C340.882 110.196 338.618 107.937 335.826 107.937C333.034 107.937 330.771 110.196 330.771 112.983C330.771 115.77 333.034 118.03 335.826 118.03Z" fill="#2F2E41"/>
<path d="M318.495 107.436C314.944 107.436 311.539 108.845 309.027 111.351C306.516 113.858 305.106 117.257 305.106 120.802V126.457H312.073L315.406 120.802L316.405 126.457H337.55L331.885 120.802C331.885 117.257 330.475 113.858 327.963 111.351C325.452 108.845 322.047 107.436 318.495 107.436Z" fill="#2F2E41"/>
<path d="M338.424 109.527C338.984 107.782 340.141 106.289 341.693 105.312C343.246 104.335 345.093 103.935 346.912 104.183C350.134 104.72 352.681 107.305 354.199 110.193C355.717 113.08 356.417 116.311 357.438 119.409C358.458 122.506 359.905 125.62 362.481 127.625C365.057 129.63 369.01 130.174 371.54 128.112C371.251 130.261 370.292 132.266 368.799 133.842C367.306 135.417 365.355 136.485 363.221 136.893C361.087 137.301 358.878 137.029 356.908 136.116C354.937 135.203 353.304 133.694 352.239 131.803C350.904 129.433 350.56 126.654 350.164 123.963C349.768 121.273 349.254 118.489 347.66 116.283C346.066 114.077 343.083 112.637 340.551 113.642L338.424 109.527Z" fill="#2F2E41"/>
<path d="M174.039 117.225C169.43 117.225 165.01 115.397 161.751 112.144C158.493 108.891 156.662 104.478 156.661 99.8779C156.661 96.7402 156.663 94.3412 156.668 94C156.815 83.2527 159.526 72.6953 164.578 63.2033C156.278 74.545 151.714 88.181 151.518 102.225C151.513 102.566 151.511 104.965 151.511 108.103C151.512 112.703 153.343 117.115 156.602 120.369C159.86 123.622 164.28 125.45 168.889 125.45C172.677 125.449 176.36 124.213 179.38 121.932C182.399 119.65 184.591 116.447 185.62 112.809C182.438 115.658 178.313 117.23 174.039 117.225Z" fill="#3F3D56"/>
<path d="M220.804 71.5105C226.132 71.7645 231.319 73.3055 235.919 76.0012C240.519 78.697 244.395 82.4669 247.214 86.9872C250.033 91.5076 251.711 96.6433 252.103 101.954C252.496 107.264 251.591 112.59 249.468 117.474C252.539 113.873 254.797 109.653 256.087 105.102C257.377 100.551 257.669 95.7753 256.942 91.1015C256.216 86.4276 254.488 81.9651 251.877 78.0182C249.266 74.0713 245.833 70.7327 241.812 68.2301C237.792 65.7275 233.278 64.1198 228.578 63.5164C223.878 62.9131 219.104 63.3284 214.579 64.734C210.055 66.1396 205.888 68.5025 202.361 71.6615C198.835 74.8205 196.032 78.7014 194.144 83.0397C197.407 79.2086 201.507 76.1766 206.13 74.1777C210.752 72.1788 215.772 71.2662 220.804 71.5105Z" fill="#3F3D56"/>
<path d="M226.15 225.178C221.449 225.179 216.935 223.335 213.583 220.044C210.231 216.753 208.31 212.278 208.234 207.586C208.016 193.985 207.903 177.229 207.903 175.314C207.9 170.655 208.572 166.021 209.898 161.554L209.891 161.552C210.674 159.31 211.62 157.128 212.721 155.023C209.342 159.518 206.652 164.491 204.741 169.777L204.748 169.779C203.422 174.246 202.75 178.88 202.753 183.539C202.753 185.454 202.866 202.21 203.084 215.81C203.16 220.503 205.081 224.978 208.433 228.269C211.785 231.56 216.299 233.404 221 233.403C224.877 233.402 228.649 232.147 231.75 229.825C234.852 227.504 237.115 224.241 238.202 220.526C234.908 223.525 230.608 225.184 226.15 225.178Z" fill="#3F3D56"/>
<path d="M65.1674 299.483L71.4807 299.483L74.4846 275.174L65.1659 275.175L65.1674 299.483Z" fill="#FFB8B8"/>
<path d="M83.6575 305.335L63.8145 305.336L63.8142 297.683L75.9906 297.682C78.0239 297.682 79.9739 298.488 81.4118 299.924C82.8496 301.359 83.6574 303.305 83.6575 305.335L83.6575 305.335Z" fill="#2F2E41"/>
<path d="M42.5078 299.483L48.8211 299.483L51.8251 275.174L42.5063 275.175L42.5078 299.483Z" fill="#FFB8B8"/>
<path d="M60.9979 305.335L41.155 305.336L41.1546 297.683L53.331 297.682C55.3643 297.682 57.3143 298.488 58.7522 299.924C60.19 301.359 60.9978 303.305 60.9979 305.335L60.9979 305.335Z" fill="#2F2E41"/>
<path d="M48.0251 292.007L41.8581 291.684C41.5401 291.667 41.2286 291.587 40.9416 291.45C40.6546 291.312 40.3978 291.119 40.1862 290.881C39.9745 290.644 39.8122 290.367 39.7086 290.066C39.605 289.765 39.5622 289.447 39.5826 289.13L46.9535 207.669L80.897 216.812L84.1674 215.922L73.9405 288.036C73.8534 288.579 73.5835 289.075 73.1754 289.444C72.7674 289.813 72.2455 290.031 71.6961 290.064L65.0481 290.373C64.7157 290.392 64.3831 290.341 64.0713 290.225C63.7595 290.108 63.4752 289.928 63.2365 289.697C62.9979 289.465 62.8099 289.186 62.6846 288.879C62.5593 288.571 62.4993 288.24 62.5085 287.908L63.713 244.626C63.7187 244.426 63.649 244.231 63.5178 244.079C63.3865 243.928 63.2032 243.831 63.004 243.808C62.8048 243.785 62.604 243.837 62.4414 243.954C62.2787 244.071 62.1659 244.245 62.1252 244.441L50.5086 290.096C50.3989 290.638 50.1045 291.124 49.6754 291.474C49.2463 291.823 48.7092 292.013 48.1555 292.011C48.1123 292.011 48.0689 292.01 48.0251 292.007Z" fill="#2F2E41"/>
<path d="M66.301 141.017C73.2866 141.017 78.9497 135.364 78.9497 128.391C78.9497 121.418 73.2866 115.765 66.301 115.765C59.3153 115.765 53.6523 121.418 53.6523 128.391C53.6523 135.364 59.3153 141.017 66.301 141.017Z" fill="#FFB8B8"/>
<path d="M45.2417 165.485L46.6325 195.438L47.1353 206.335C47.1553 206.81 47.3166 207.267 47.5987 207.65C47.8807 208.032 48.2706 208.322 48.7185 208.482L81.336 220.276C81.5994 220.374 81.8786 220.423 82.1597 220.42C82.481 220.422 82.7993 220.359 83.0956 220.235C83.3919 220.111 83.6602 219.928 83.8843 219.699C84.1085 219.469 84.284 219.196 84.4003 218.897C84.5167 218.599 84.5715 218.279 84.5615 217.959L83.2242 164.102C83.1364 159.684 81.5069 155.434 78.6167 152.086C75.7265 148.738 71.7566 146.501 67.3915 145.762C67.076 145.714 66.755 145.666 66.4341 145.623C63.7273 145.288 60.9799 145.548 58.3849 146.387C55.79 147.225 53.4107 148.621 51.4143 150.476C49.3472 152.374 47.7229 154.702 46.6563 157.296C45.5896 159.889 45.1068 162.685 45.2417 165.485L45.2417 165.485Z" fill="#CCCCCC"/>
<path d="M96.9173 214.299C96.1458 214.06 95.441 213.645 94.859 213.085C94.2771 212.526 93.8341 211.839 93.5655 211.079C93.2969 210.318 93.2101 209.506 93.312 208.706C93.4139 207.906 93.7017 207.141 94.1524 206.472L83.0914 191.79L92.6364 191.201L101.677 205.233C102.645 205.98 103.318 207.043 103.579 208.236C103.84 209.429 103.672 210.676 103.104 211.757C102.536 212.839 101.605 213.686 100.474 214.151C99.3424 214.616 98.0834 214.668 96.9173 214.299H96.9173Z" fill="#FFB8B8"/>
<path d="M89.1403 203.815C88.8472 203.696 88.5807 203.521 88.3561 203.298C88.1314 203.076 87.9532 202.812 87.8316 202.52L71.1674 162.889C70.8405 162.113 70.6699 161.281 70.6654 160.439C70.661 159.597 70.8228 158.763 71.1415 157.983C71.4603 157.204 71.9298 156.495 72.5232 155.897C73.1166 155.299 73.8222 154.823 74.5998 154.497C75.3774 154.172 76.2117 154.002 77.055 153.998C77.8983 153.994 78.7341 154.156 79.5146 154.475C80.2951 154.794 81.005 155.263 81.6038 155.856C82.2026 156.449 82.6784 157.154 83.0042 157.93L99.6684 197.562C99.9147 198.149 99.9174 198.81 99.676 199.4C99.4346 199.99 98.9687 200.46 98.3806 200.707L90.9826 203.806C90.6913 203.929 90.3785 203.993 90.0623 203.995C89.746 203.996 89.4326 203.935 89.1402 203.815L89.1403 203.815Z" fill="#CCCCCC"/>
<path d="M62.2343 202.417L78.2398 171.826C78.5485 171.238 79.0783 170.795 79.7131 170.597C80.3479 170.398 81.0358 170.458 81.6258 170.765L104.858 182.876C105.447 183.185 105.89 183.713 106.089 184.347C106.289 184.981 106.228 185.667 105.921 186.256L89.915 216.847C89.6063 217.436 89.0765 217.878 88.4417 218.077C87.8069 218.276 87.119 218.215 86.5289 217.908L63.2969 205.797C62.7076 205.489 62.2647 204.96 62.0655 204.326C61.8663 203.693 61.927 203.006 62.2343 202.417Z" fill="#3F3D56"/>
<path d="M72.9682 188.441C72.6836 187.686 72.2263 187.008 71.6328 186.461C71.0392 185.915 70.3258 185.514 69.5495 185.291C68.7732 185.068 67.9554 185.03 67.1616 185.179C66.3677 185.327 65.6196 185.659 64.9771 186.148L49.6414 175.993L49.6154 185.539L64.1823 193.719C64.9864 194.639 66.0895 195.247 67.298 195.437C68.5065 195.626 69.7433 195.385 70.7915 194.756C71.8397 194.126 72.6323 193.148 73.0303 191.993C73.4283 190.839 73.4063 189.581 72.9682 188.441Z" fill="#FFB8B8"/>
<path d="M53.5788 190.587L41.0455 180.677C39.6897 180.223 38.4646 179.447 37.4753 178.416C36.4861 177.385 35.7623 176.129 35.3661 174.758C34.9699 173.386 34.9131 171.939 35.2006 170.54C35.488 169.142 36.1112 167.834 37.0166 166.728L48.3964 151.841C49.1872 150.877 50.2993 150.229 51.5296 150.015C52.7598 149.802 54.0259 150.037 55.0965 150.679C56.167 151.32 56.9705 152.325 57.36 153.509C57.7496 154.693 57.6991 155.978 57.218 157.128L48.214 171.83L61.4461 178.095C61.7538 178.241 62.027 178.45 62.2477 178.709C62.4685 178.968 62.6316 179.27 62.7264 179.597C62.8213 179.923 62.8456 180.266 62.7978 180.603C62.7501 180.939 62.6313 181.262 62.4494 181.549L57.108 189.987C56.9275 190.272 56.689 190.516 56.4081 190.703C56.1271 190.89 55.81 191.016 55.4772 191.072C55.464 191.075 55.4507 191.077 55.4374 191.079C55.1104 191.128 54.7767 191.11 54.4571 191.025C54.1374 190.941 53.8384 190.792 53.5788 190.587Z" fill="#CCCCCC"/>
<path d="M56.7433 136.845C56.689 136.687 56.6718 136.518 56.6929 136.352C56.7141 136.186 56.7731 136.027 56.8654 135.887C56.9576 135.747 57.0808 135.63 57.2253 135.545C57.3699 135.46 57.532 135.409 57.6993 135.396C58.0419 135.415 58.3771 135.503 58.6848 135.654C58.9925 135.806 59.2662 136.018 59.4894 136.278C59.9472 136.805 60.4801 137.261 61.0711 137.633C61.6829 137.941 62.5128 137.897 62.8616 137.31C63.1892 136.759 62.9647 136.021 62.7664 135.381C62.2618 133.752 61.9795 132.063 61.927 130.359C61.8699 128.456 62.1388 126.471 63.1938 124.988C64.5553 123.073 66.99 122.346 69.294 122.399C71.5981 122.451 73.8648 123.161 76.1471 123.61C76.935 123.765 77.8611 123.844 78.3881 123.235C78.9484 122.587 78.7426 121.538 78.5043 120.663C77.8858 118.392 77.2297 116.044 75.7927 114.21C74.239 112.304 72.0196 111.057 69.5815 110.719C67.2408 110.43 64.8647 110.699 62.6485 111.505C59.0379 112.641 55.8607 114.85 53.542 117.838C51.1518 121.014 50.119 125.007 50.6694 128.941C51.2071 132.368 53.0264 135.465 55.7605 137.606L56.7433 136.845Z" fill="#2F2E41"/>
<path d="M216.944 299.584C213.579 298.121 210.6 295.897 208.243 293.088C205.887 290.279 204.216 286.962 203.363 283.398C202.511 279.834 202.5 276.122 203.331 272.553C204.162 268.984 205.813 265.657 208.153 262.834C205.44 264.812 203.179 267.342 201.521 270.258C199.863 273.174 198.845 276.409 198.534 279.748C198.224 283.087 198.629 286.453 199.722 289.624C200.815 292.795 202.571 295.697 204.874 298.139C207.176 300.58 209.973 302.505 213.077 303.785C216.182 305.065 219.524 305.672 222.882 305.564C226.239 305.456 229.535 304.637 232.551 303.161C235.567 301.684 238.234 299.585 240.375 297.001C237.036 299.437 233.116 300.957 229.005 301.41C224.894 301.864 220.735 301.234 216.944 299.584Z" fill="#3F3D56"/>
</g>
<defs>
<clipPath id="clip0">
<rect width="435" height="306" fill="white"/>
</clipPath>
</defs>
</svg>
